<mxfile host="app.diagrams.net" modified="2024-03-21T07:54:22.837Z" agent="Mozilla/5.0 (Windows NT 10.0; Win64; x64) AppleWebKit/537.36 (KHTML, like Gecko) Chrome/122.0.0.0 Safari/537.36" etag="cBpMHfSF3X1282E8mxgE" version="23.0.2" type="github">
  <diagram id="prtHgNgQTEPvFCAcTncT" name="Page-1">
    <mxGraphModel dx="1262" dy="605" grid="1" gridSize="10" guides="1" tooltips="1" connect="1" arrows="1" fold="1" page="1" pageScale="1" pageWidth="827" pageHeight="1169" math="0" shadow="0">
      <root>
        <mxCell id="0" />
        <mxCell id="1" parent="0" />
        <mxCell id="5YO8LLsSh-AyEsvJpuwk-9" value="Mitgliederversammlung" style="rounded=0;whiteSpace=wrap;html=1;" vertex="1" parent="1">
          <mxGeometry x="40" y="790" width="750" height="60" as="geometry" />
        </mxCell>
        <object label="Verwaltungsrat" Mitglieder="8" id="5YO8LLsSh-AyEsvJpuwk-11">
          <mxCell style="rounded=0;whiteSpace=wrap;html=1;" vertex="1" parent="1">
            <mxGeometry x="40" y="670" width="120" height="60" as="geometry" />
          </mxCell>
        </object>
        <mxCell id="5YO8LLsSh-AyEsvJpuwk-12" value="Ehrenrat" style="rounded=0;whiteSpace=wrap;html=1;" vertex="1" parent="1">
          <mxGeometry x="190" y="670" width="120" height="60" as="geometry" />
        </mxCell>
        <mxCell id="5YO8LLsSh-AyEsvJpuwk-13" value="Beirat" style="rounded=0;whiteSpace=wrap;html=1;" vertex="1" parent="1">
          <mxGeometry x="350" y="670" width="120" height="60" as="geometry" />
        </mxCell>
        <mxCell id="5YO8LLsSh-AyEsvJpuwk-14" value="Revisoren" style="rounded=0;whiteSpace=wrap;html=1;" vertex="1" parent="1">
          <mxGeometry x="510" y="670" width="120" height="60" as="geometry" />
        </mxCell>
        <mxCell id="5YO8LLsSh-AyEsvJpuwk-15" value="Wahlausschuss" style="rounded=0;whiteSpace=wrap;html=1;" vertex="1" parent="1">
          <mxGeometry x="670" y="670" width="120" height="60" as="geometry" />
        </mxCell>
        <mxCell id="5YO8LLsSh-AyEsvJpuwk-16" value="wählt" style="endArrow=classic;html=1;rounded=0;entryX=0.5;entryY=1;entryDx=0;entryDy=0;" edge="1" parent="1" source="5YO8LLsSh-AyEsvJpuwk-9" target="5YO8LLsSh-AyEsvJpuwk-11">
          <mxGeometry width="50" height="50" relative="1" as="geometry">
            <mxPoint x="580" y="590" as="sourcePoint" />
            <mxPoint x="630" y="540" as="targetPoint" />
          </mxGeometry>
        </mxCell>
        <mxCell id="5YO8LLsSh-AyEsvJpuwk-17" value="wählt" style="endArrow=classic;html=1;rounded=0;entryX=0.65;entryY=0.983;entryDx=0;entryDy=0;entryPerimeter=0;" edge="1" parent="1" source="5YO8LLsSh-AyEsvJpuwk-9" target="5YO8LLsSh-AyEsvJpuwk-12">
          <mxGeometry width="50" height="50" relative="1" as="geometry">
            <mxPoint x="313" y="800" as="sourcePoint" />
            <mxPoint x="96" y="742" as="targetPoint" />
          </mxGeometry>
        </mxCell>
        <mxCell id="5YO8LLsSh-AyEsvJpuwk-18" value="wählt" style="endArrow=classic;html=1;rounded=0;" edge="1" parent="1" source="5YO8LLsSh-AyEsvJpuwk-9" target="5YO8LLsSh-AyEsvJpuwk-13">
          <mxGeometry width="50" height="50" relative="1" as="geometry">
            <mxPoint x="377" y="800" as="sourcePoint" />
            <mxPoint x="278" y="739" as="targetPoint" />
          </mxGeometry>
        </mxCell>
        <mxCell id="5YO8LLsSh-AyEsvJpuwk-19" value="wählt" style="endArrow=classic;html=1;rounded=0;" edge="1" parent="1" source="5YO8LLsSh-AyEsvJpuwk-9" target="5YO8LLsSh-AyEsvJpuwk-14">
          <mxGeometry width="50" height="50" relative="1" as="geometry">
            <mxPoint x="424" y="800" as="sourcePoint" />
            <mxPoint x="421" y="740" as="targetPoint" />
          </mxGeometry>
        </mxCell>
        <mxCell id="5YO8LLsSh-AyEsvJpuwk-20" value="wählt" style="endArrow=classic;html=1;rounded=0;entryX=0.5;entryY=1;entryDx=0;entryDy=0;" edge="1" parent="1" source="5YO8LLsSh-AyEsvJpuwk-9" target="5YO8LLsSh-AyEsvJpuwk-15">
          <mxGeometry width="50" height="50" relative="1" as="geometry">
            <mxPoint x="464" y="800" as="sourcePoint" />
            <mxPoint x="740" y="760" as="targetPoint" />
          </mxGeometry>
        </mxCell>
      </root>
    </mxGraphModel>
  </diagram>
</mxfile>
